<svg width="215" height="25" viewBox="0 0 215 25" fill="none" xmlns="http://www.w3.org/2000/svg">
<path d="M18.2521 18.5373C18.2521 19.5151 18.0077 20.3571 17.5188 21.0633C17.22 21.4978 16.7447 22.041 16.0928 22.6929C15.4681 23.3448 14.9656 23.7929 14.5854 24.0374C13.7162 24.5534 12.8199 24.8115 11.8965 24.8115H6.35564C5.43217 24.8115 4.53586 24.5534 3.66672 24.0374C3.2593 23.7929 2.72967 23.3448 2.07781 22.6929C1.45311 22.0139 0.991372 21.4707 0.692602 21.0633C0.230867 20.3842 0 19.5422 0 18.5373V11.3668C0 10.3347 0.230867 9.47914 0.692602 8.80012C0.991372 8.39271 1.45311 7.86307 2.07781 7.21121C2.72967 6.55935 3.2593 6.11119 3.66672 5.86675C4.53586 5.35069 5.43217 5.09266 6.35564 5.09266H11.8965C12.8199 5.09266 13.7162 5.35069 14.5854 5.86675C15.2916 6.30132 16.2694 7.27911 17.5188 8.80012C18.0077 9.5063 18.2521 10.3619 18.2521 11.3668V18.5373ZM13.2409 18.4965V11.3668C12.8878 10.715 12.4125 10.2125 11.815 9.85939H6.47787C5.88033 10.294 5.37785 10.81 4.97044 11.4076V18.4965C5.51366 19.2299 6.00255 19.7324 6.43713 20.004H11.7742C12.2903 19.678 12.7792 19.1756 13.2409 18.4965Z" fill="url(#paint0_linear_805_242)"/>
<path d="M39.6161 18.904C39.6161 19.9361 39.3581 20.8324 38.8421 21.5929C38.6519 21.8917 38.2988 22.2991 37.7828 22.8151C37.2939 23.304 36.9001 23.6571 36.6013 23.8744C35.705 24.4991 34.7136 24.8115 33.6272 24.8115H28.9419C27.8283 24.8115 26.7962 24.4719 25.8456 23.7929C24.8949 23.0867 24.1344 22.2855 23.5641 21.3892C23.1567 20.7645 22.8171 20.1398 22.5455 19.5151L27.353 18.2114C27.7876 19.1892 28.358 19.8003 29.0641 20.0447H33.5864C33.6679 20.0447 33.8173 19.9361 34.0346 19.7188C34.279 19.5015 34.4827 19.2706 34.6457 19.0262V15.5224C34.6185 15.5224 34.5778 15.5496 34.5235 15.6039C34.4692 15.6311 34.4284 15.6582 34.4013 15.6854C33.6951 16.0928 33.1654 16.2965 32.8123 16.2965H28.453C27.3123 16.2965 26.3209 15.9978 25.4789 15.4002C25.1801 15.1829 24.7727 14.8298 24.2567 14.3409C23.7406 13.8249 23.4011 13.431 23.2381 13.1594C22.7221 12.3989 22.4641 11.5162 22.4641 10.5113V5.86675C22.4641 4.88896 22.7221 4.00623 23.2381 3.21856C23.6455 2.59386 24.3925 1.84694 25.4789 0.977791C26.4024 0.32593 27.3937 0 28.453 0H33.6272C34.6864 0 35.6778 0.32593 36.6013 0.977791C36.9272 1.22224 37.3346 1.58891 37.8235 2.07781C38.3396 2.5667 38.6791 2.94695 38.8421 3.21856C39.3581 3.92475 39.6161 4.79389 39.6161 5.826V18.904ZM34.6457 10.3483V5.826C34.5099 5.58156 34.3198 5.35069 34.0753 5.1334C33.8309 4.88896 33.6679 4.76673 33.5864 4.76673H28.453C28.3715 4.76673 28.2086 4.87538 27.9641 5.09266C27.7468 5.28279 27.5703 5.50008 27.4345 5.74452V10.4705C27.5703 10.715 27.7604 10.9594 28.0049 11.2039C28.2765 11.4483 28.453 11.5705 28.5345 11.5705H33.0975C33.3148 11.5705 33.4778 11.5434 33.5864 11.489C34.0753 11.0816 34.4284 10.7014 34.6457 10.3483Z" fill="url(#paint1_linear_805_242)"/>
<path d="M71.8368 24.6077H66.8256L58.9218 10.2261V24.6077H53.9513V0.162966H59.044L66.8663 14.7483V0.162966H71.8368V24.6077Z" fill="url(#paint2_linear_805_242)"/>
<path d="M92.9602 24.6077H76.9081V0.162966H92.9602V4.9297H81.8786V9.94088H92.5935V14.7076H81.8786V19.841H92.9602V24.6077Z" fill="url(#paint3_linear_805_242)"/>
<path d="M114.904 4.9297H108.345V24.6077H103.334V4.9297H96.7339V0.162966H114.904V4.9297Z" fill="url(#paint4_linear_805_242)"/>
<path d="M146.02 0.162966L140.357 24.6077H135.02L131.476 10.3076C131.095 11.8829 130.511 14.273 129.724 17.478C128.936 20.6558 128.352 23.0324 127.972 24.6077H122.635L117.053 0.162966H122.187L125.405 15.2372C125.813 13.4718 126.41 10.9051 127.198 7.53714C128.013 4.14203 128.597 1.68397 128.95 0.162966H134.002L137.546 15.2372C137.872 13.7706 138.388 11.3397 139.094 7.94455C139.8 4.52228 140.344 1.92842 140.724 0.162966H146.02Z" fill="url(#paint5_linear_805_242)"/>
<path d="M167.784 18.5373C167.784 19.5422 167.553 20.3842 167.091 21.0633C165.95 22.5299 164.959 23.5213 164.117 24.0374C163.248 24.5534 162.352 24.8115 161.428 24.8115H155.235C154.312 24.8115 153.416 24.5534 152.547 24.0374C152.139 23.7929 151.61 23.3448 150.958 22.6929C150.333 22.0139 149.871 21.4707 149.572 21.0633C149.111 20.3842 148.88 19.5422 148.88 18.5373V6.27416C148.88 5.24205 149.111 4.38648 149.572 3.70746C149.871 3.30005 150.333 2.77041 150.958 2.11855C151.61 1.46669 152.139 1.01853 152.547 0.774084C153.416 0.258028 154.312 0 155.235 0H161.428C162.352 0 163.248 0.258028 164.117 0.774084C164.878 1.20866 165.869 2.18645 167.091 3.70746C167.553 4.38648 167.784 5.24205 167.784 6.27416V18.5373ZM162.813 18.5373V6.27416C162.433 5.6223 161.944 5.11982 161.347 4.76673H155.358C154.76 5.20131 154.258 5.71736 153.85 6.3149V18.5373C154.393 19.2706 154.882 19.7731 155.317 20.0447H161.306C161.822 19.6645 162.324 19.162 162.813 18.5373Z" fill="url(#paint6_linear_805_242)"/>
<path d="M190.56 9.49272C190.56 10.4977 190.302 11.3804 189.786 12.1409C189.623 12.4125 189.284 12.7928 188.768 13.2817C188.279 13.7706 187.885 14.1236 187.586 14.3409C187.369 14.5039 187.043 14.694 186.609 14.9113L191.905 24.6077H186.364L181.516 15.278H177.605V24.6077H172.634V0.162966H184.531C185.726 0.162966 186.744 0.475316 187.586 1.10002C188.401 1.72472 189.134 2.47164 189.786 3.34079C190.302 4.04697 190.56 4.94328 190.56 6.02971V9.49272ZM185.59 9.53347V5.90749C185.318 5.47291 184.965 5.14699 184.531 4.9297H177.605V10.5113H184.531C184.612 10.5113 184.775 10.4026 185.02 10.1853C185.291 9.94088 185.481 9.72359 185.59 9.53347Z" fill="url(#paint7_linear_805_242)"/>
<path d="M214.371 24.6077H208.341L201.048 14.5039H200.641V24.6077H195.671V0.162966H200.641V10.1038H201.048C201.103 10.1038 201.741 9.27544 202.963 7.61862C204.186 5.96181 205.394 4.305 206.589 2.64818L208.382 0.162966H214.249L205.245 12.2224L214.371 24.6077Z" fill="url(#paint8_linear_805_242)"/>
<defs>
<linearGradient id="paint0_linear_805_242" x1="266.53" y1="-14.76" x2="230.592" y2="103.696" gradientUnits="userSpaceOnUse">
<stop stop-color="#5BFDC3"/>
<stop offset="1" stop-color="#3DEFDB"/>
</linearGradient>
<linearGradient id="paint1_linear_805_242" x1="266.53" y1="-14.76" x2="230.592" y2="103.696" gradientUnits="userSpaceOnUse">
<stop stop-color="#5BFDC3"/>
<stop offset="1" stop-color="#3DEFDB"/>
</linearGradient>
<linearGradient id="paint2_linear_805_242" x1="266.53" y1="-14.76" x2="230.592" y2="103.696" gradientUnits="userSpaceOnUse">
<stop stop-color="#5BFDC3"/>
<stop offset="1" stop-color="#3DEFDB"/>
</linearGradient>
<linearGradient id="paint3_linear_805_242" x1="266.53" y1="-14.76" x2="230.592" y2="103.696" gradientUnits="userSpaceOnUse">
<stop stop-color="#5BFDC3"/>
<stop offset="1" stop-color="#3DEFDB"/>
</linearGradient>
<linearGradient id="paint4_linear_805_242" x1="266.53" y1="-14.76" x2="230.592" y2="103.696" gradientUnits="userSpaceOnUse">
<stop stop-color="#5BFDC3"/>
<stop offset="1" stop-color="#3DEFDB"/>
</linearGradient>
<linearGradient id="paint5_linear_805_242" x1="266.53" y1="-14.76" x2="230.592" y2="103.696" gradientUnits="userSpaceOnUse">
<stop stop-color="#5BFDC3"/>
<stop offset="1" stop-color="#3DEFDB"/>
</linearGradient>
<linearGradient id="paint6_linear_805_242" x1="266.53" y1="-14.76" x2="230.592" y2="103.696" gradientUnits="userSpaceOnUse">
<stop stop-color="#5BFDC3"/>
<stop offset="1" stop-color="#3DEFDB"/>
</linearGradient>
<linearGradient id="paint7_linear_805_242" x1="266.53" y1="-14.76" x2="230.592" y2="103.696" gradientUnits="userSpaceOnUse">
<stop stop-color="#5BFDC3"/>
<stop offset="1" stop-color="#3DEFDB"/>
</linearGradient>
<linearGradient id="paint8_linear_805_242" x1="266.53" y1="-14.76" x2="230.592" y2="103.696" gradientUnits="userSpaceOnUse">
<stop stop-color="#5BFDC3"/>
<stop offset="1" stop-color="#3DEFDB"/>
</linearGradient>
</defs>
</svg>
